<svg id="图层_1" data-name="图层 1" xmlns="http://www.w3.org/2000/svg" width="86.74" height="35.48" viewBox="0 0 86.74 35.48"><defs><style>.cls-1{fill:#ccc;}</style></defs><title>logo</title><path id="日间" class="cls-1" d="M105.86,16.55c-1.7.49-.9.79-1.23,1.35s-1.17.84-1.83,1.57a21.69,21.69,0,0,1-1.67,1.73A1.27,1.27,0,0,1,103,22.26a5.76,5.76,0,0,1-1.15,2.45,8.69,8.69,0,0,1-2.47,2.39,5.52,5.52,0,0,1,1.8,1.43,12.83,12.83,0,0,1,2.42,5.13,7.68,7.68,0,0,1-1.18,3.94A5.79,5.79,0,0,1,97.92,40a4.14,4.14,0,0,1-3.19-1.54c-.79-.76-2.37-2-2.16-2.48a16.69,16.69,0,0,0,1.62-2.48c-.22.22-.7.56-.86.42a1.8,1.8,0,0,0-1.17-.35c-.7,0-.93-.35-.93-.51a12.27,12.27,0,0,1,2.26-1.6c1.33-.89,1.66-1.54,1.66-2s-.74-.46-.74-.46-1.79.19-1.14-1c1.1-2,1.22-1.43,2.63-2a3.94,3.94,0,0,0,1.54-1A5.39,5.39,0,0,0,98.2,24a10.37,10.37,0,0,0-1.16.41,1.71,1.71,0,0,1-2.15-.16c-.58-.58-1.25-.71-.47-1.12a8.65,8.65,0,0,0,1.73-1.31c1.52-1.43,2.84-2.9,3.62-3.69,1-1,2.8-3.23,2.36-3a21.12,21.12,0,0,0-2.82,1.62,14.77,14.77,0,0,0-1.26,1.31,18.24,18.24,0,0,0-3.46,3.58,2.28,2.28,0,0,1-3.19.46c-.66-.51-3-2.27-3.24-3.22a6.62,6.62,0,0,1,1.47-4.81,5.06,5.06,0,0,1,1.18-1.31,20.65,20.65,0,0,1,2-1c.27-.09.6-.09.57.32a3.47,3.47,0,0,1-.24.92,7.79,7.79,0,0,0,0,3.17.53.53,0,0,0,.66.28c.35-.11,1.45-1,2.21-1.36a14.52,14.52,0,0,0,1.53-.85,1.31,1.31,0,0,1-.92-.58c-.21-.39-.37-1.23-.77-1.58a2.77,2.77,0,0,1-.6-.74,2,2,0,0,0,1.1,0c.44-.18.66-.73,1.2-.76.87-.06,1.17.38,1.81,1s.85.95,1.26,1.35c.53-.29,2.5-1.22,3.07-1.43a3.48,3.48,0,0,1,2.2-.06c1,.24,2.07,1.68,2.29,1.81a.94.94,0,0,1,.24.62C106.24,15.42,106.93,16.25,105.86,16.55Zm-7.5,11.3a13.24,13.24,0,0,0-1.47,1s-.22.2.12.32a.66.66,0,0,1,.4,1,2,2,0,0,1-.51.85,1.91,1.91,0,0,1,.75.38,1.06,1.06,0,0,1-.11,1,22.85,22.85,0,0,1-.93,2.28c-.48.83-1,.86-.28,1.15a6,6,0,0,1,.86.29,1.24,1.24,0,0,0,1.21.29c.73-.2,1.41-.34,1.81-2.06a6.26,6.26,0,0,0-.09-3.52c-.2-.56-.93-2.79-1.66-3h-.1ZM83.9,37.28a9.94,9.94,0,0,1-2,1.83,17.78,17.78,0,0,1-2.33,1l.24-.58c1.66-.92,2.63-2.38,2.43-2.54-.74-.61-4.9-.18-6.35-3.4A8.44,8.44,0,0,1,76.47,26c.6-.66,1.55-1.81,1-2s-.57.51-1.31.49S73.27,22,73,21a4.5,4.5,0,0,1,.38-3.62c-.07,1,0,2.1.62,2.57a5.85,5.85,0,0,0,2.29.11,20.27,20.27,0,0,1,3.37.18,3.94,3.94,0,0,1,2.76,1.6,3.17,3.17,0,0,1-.07,3.39,13.88,13.88,0,0,1-2,2.21c-.55.58-1,1.21-.81,1.64.45,1.31,2.37,2.17,3.43,3.16s2.56,3.24,2.44,4.19c-.1.72-.8.5-1.43.89Zm-1-19.4c-.35.57-1.58.35-2.15-.05s-2.63-2-3.19-2.35-1.12.43-2.23.3a2.1,2.1,0,0,0,1.19-1c.22-.66-1.31-1.49-2.29-2.07,0,0,2.37.16,3.29.36a10.76,10.76,0,0,1,3.42,1.25c.86.45,1.47.53,1.85,1.39a1.67,1.67,0,0,1-.15.81c0,.22.62.81.27,1.38Zm21.3,13.06a2.15,2.15,0,0,1-.35-2.41,27.6,27.6,0,0,1,1.45-3.33c.38-.66,1-2.25,1-2.25.28-.59.79.06,1.42,1.31s.41,3.49.52,3.94,1.22,1.05,1.11,2-.76.38-1.31,1.08-1.49.66-2.23.87a5.91,5.91,0,0,0-1.71,1.12.72.72,0,0,1,0-.46,9,9,0,0,1,.66-1.11c.11-.3-.25-.51-.52-.73ZM64.8,9.26H24.5a1.85,1.85,0,0,0-1.87,1.83h0V37a1.9,1.9,0,0,0,2,1.79h23l8.54,5.91V38.83h8.54a1.9,1.9,0,0,0,2-1.79V11.1A1.85,1.85,0,0,0,64.8,9.26h0ZM38.4,34.89H31.17V12.54H38.4ZM60.09,19.11H54.87V34.89H47.56V19.11H42.34V12.54H60.09Z" transform="translate(-22.63 -9.26)"/></svg>